# Blender 4.0.2
# www.blender.org
mtllib rolling-bastion_showcase.mtl
o Cube
v 0.000000 -1.000000 1.000000
v 0.000000 0.194800 1.000000
v 0.000000 -1.000000 -1.000000
v 0.000000 0.194800 -1.000000
v 1.105963 -1.000000 -1.000000
v 1.105963 0.194800 -1.000000
v 0.000000 -1.000000 0.000000
v 0.000000 0.194800 0.000000
v 1.105963 -1.000000 0.000000
v 1.105963 0.194800 0.000000
v 0.000000 -1.000000 0.066475
v 1.500001 0.194800 0.000002
v 0.000000 0.194800 0.066475
v 1.500001 -1.000000 0.000002
v -1.105963 -1.000000 -1.000000
v -1.105963 0.194800 -1.000000
v -1.105963 -1.000000 0.000000
v -1.105963 0.194800 0.000000
v -1.500001 0.194800 0.000002
v -1.500001 -1.000000 0.000002
vn -1.0000 -0.0000 -0.0000
vn -0.0000 -0.0000 -1.0000
vn 0.5547 -0.0000 0.8321
vn -0.0000 1.0000 -0.0000
vn -0.0000 -1.0000 -0.0000
vn 1.0000 -0.0000 -0.0000
vn -0.5547 -0.0000 0.8321
vt 0.375000 0.125000
vt 0.625000 0.125000
vt 0.625000 0.250000
vt 0.375000 0.250000
vt 0.625000 0.500000
vt 0.375000 0.500000
vt 0.375000 0.000000
vt 0.375000 0.633309
vt 0.625000 0.633309
vt 0.625000 0.000000
vt 0.875000 0.633309
vt 0.125000 0.633309
vt 0.875000 0.500000
vt 0.875000 0.625000
vt 0.625000 0.625000
vt 0.125000 0.500000
vt 0.375000 0.625000
vt 0.125000 0.625000
vt 0.375000 0.116691
vt 0.625000 0.116691
s 0
f 7/1/1 8/2/1 4/3/1 3/4/1
f 3/4/2 4/3/2 6/5/2 5/6/2
f 1/7/3 14/8/3 12/9/3 2/10/3
f 12/9/4 13/11/4 2/10/4
f 11/12/5 14/8/5 1/7/5
f 6/5/4 4/13/4 8/14/4 10/15/4
f 3/16/5 5/6/5 9/17/5 7/18/5
f 5/6/6 6/5/6 10/15/6 9/17/6
f 11/19/1 13/20/1 8/2/1 7/1/1
f 1/7/1 2/10/1 13/20/1 11/19/1
f 10/15/4 8/14/4 13/11/4 12/9/4
f 7/18/5 9/17/5 14/8/5 11/12/5
f 9/17/2 10/15/2 12/9/2 14/8/2
f 3/4/2 15/6/2 16/5/2 4/3/2
f 1/7/7 2/10/7 19/9/7 20/8/7
f 19/9/4 2/10/4 13/11/4
f 11/12/5 1/7/5 20/8/5
f 16/5/4 18/15/4 8/14/4 4/13/4
f 3/16/5 7/18/5 17/17/5 15/6/5
f 15/6/1 17/17/1 18/15/1 16/5/1
f 18/15/4 19/9/4 13/11/4 8/14/4
f 7/18/5 11/12/5 20/8/5 17/17/5
f 17/17/2 20/8/2 19/9/2 18/15/2
